<svg xmlns="http://www.w3.org/2000/svg" xmlns:xlink="http://www.w3.org/1999/xlink" width="500" zoomAndPan="magnify" viewBox="0 0 375 374.999991" height="500" preserveAspectRatio="xMidYMid meet" version="1.0"><defs><g/><clipPath id="id1"><path d="M 71 36 L 340 36 L 340 251 L 71 251 Z M 71 36 " clip-rule="nonzero"/></clipPath><clipPath id="id2"><path d="M 62.90625 -25.453125 L 375.371094 -0.015625 L 349.9375 312.449219 L 37.46875 287.011719 Z M 62.90625 -25.453125 " clip-rule="nonzero"/></clipPath><clipPath id="id3"><path d="M 62.90625 -25.453125 L 375.371094 -0.015625 L 349.9375 312.449219 L 37.46875 287.011719 Z M 62.90625 -25.453125 " clip-rule="nonzero"/></clipPath></defs><g fill="#000000" fill-opacity="1"><g transform="translate(66.493397, 295.134619)"><g><path d="M 27.921875 -30.875 L 34.5 -30.875 C 36.144531 -30.875 36.992188 -30.023438 37.046875 -28.328125 L 38.265625 0 L 31.8125 0 L 30.78125 -25.546875 L 30.03125 -25.546875 L 25.375 -6.4375 C 25.070312 -4.976562 24.144531 -4.25 22.59375 -4.25 L 18.125 -4.25 C 16.570312 -4.25 15.644531 -4.976562 15.34375 -6.4375 L 10.65625 -25.546875 L 9.890625 -25.546875 L 9 0 L 2.546875 0 L 3.671875 -28.328125 C 3.753906 -30.023438 4.601562 -30.875 6.21875 -30.875 L 12.796875 -30.875 C 14.253906 -30.875 15.148438 -30.144531 15.484375 -28.6875 L 19.25 -13.296875 C 19.476562 -12.304688 19.742188 -10.859375 20.046875 -8.953125 L 20.625 -8.953125 C 20.65625 -9.097656 20.765625 -9.707031 20.953125 -10.78125 C 21.148438 -11.851562 21.3125 -12.691406 21.4375 -13.296875 L 25.15625 -28.6875 C 25.507812 -30.144531 26.429688 -30.875 27.921875 -30.875 Z M 27.921875 -30.875 "/></g></g></g><g fill="#000000" fill-opacity="1"><g transform="translate(107.251014, 295.134619)"><g><path d="M 19.875 -8.09375 L 9.265625 -8.09375 L 7.03125 0 L 0.046875 0 L 8.953125 -29.09375 C 9.066406 -29.625 9.347656 -30.050781 9.796875 -30.375 C 10.242188 -30.707031 10.753906 -30.875 11.328125 -30.875 L 17.765625 -30.875 C 19.046875 -30.875 19.835938 -30.28125 20.140625 -29.09375 L 29.046875 0 L 22.109375 0 Z M 18.390625 -13.375 L 15.796875 -22.828125 C 15.441406 -24.316406 15.234375 -25.285156 15.171875 -25.734375 L 13.96875 -25.734375 C 13.90625 -25.429688 13.796875 -24.953125 13.640625 -24.296875 C 13.492188 -23.640625 13.378906 -23.148438 13.296875 -22.828125 L 10.6875 -13.375 Z M 18.390625 -13.375 "/></g></g></g><g fill="#000000" fill-opacity="1"><g transform="translate(136.331645, 295.134619)"><g><path d="M 27.46875 0 L 20.265625 0 L 17.9375 -9.4375 C 17.644531 -10.425781 17.25 -11.101562 16.75 -11.46875 C 16.257812 -11.84375 15.554688 -12.03125 14.640625 -12.03125 L 9.84375 -12.078125 L 9.84375 0 L 3.125 0 L 3.125 -30.875 C 5.90625 -31.144531 9.832031 -31.28125 14.90625 -31.28125 C 19.050781 -31.28125 21.988281 -30.625 23.71875 -29.3125 C 25.445312 -28 26.3125 -25.613281 26.3125 -22.15625 C 26.3125 -19.882812 25.851562 -18.109375 24.9375 -16.828125 C 24.03125 -15.546875 22.519531 -14.769531 20.40625 -14.5 L 20.40625 -14.28125 C 22.757812 -13.738281 24.222656 -12.1875 24.796875 -9.625 Z M 9.84375 -17.3125 L 14.765625 -17.3125 C 16.554688 -17.3125 17.78125 -17.617188 18.4375 -18.234375 C 19.09375 -18.847656 19.421875 -20.003906 19.421875 -21.703125 C 19.421875 -23.398438 19.097656 -24.546875 18.453125 -25.140625 C 17.816406 -25.742188 16.585938 -26.046875 14.765625 -26.046875 L 9.84375 -26 Z M 9.84375 -17.3125 "/></g></g></g><g fill="#000000" fill-opacity="1"><g transform="translate(165.099097, 295.134619)"><g><path d="M 24.390625 -5.765625 L 24.96875 -0.71875 C 22.28125 0.113281 18.984375 0.53125 15.078125 0.53125 C 10.304688 0.53125 6.953125 -0.660156 5.015625 -3.046875 C 3.078125 -5.429688 2.109375 -9.5625 2.109375 -15.4375 C 2.109375 -21.3125 3.078125 -25.441406 5.015625 -27.828125 C 6.953125 -30.222656 10.304688 -31.421875 15.078125 -31.421875 C 18.535156 -31.421875 21.625 -31.078125 24.34375 -30.390625 L 23.765625 -25.28125 C 21.347656 -25.425781 18.453125 -25.5 15.078125 -25.5 C 12.835938 -25.5 11.304688 -24.789062 10.484375 -23.375 C 9.671875 -21.957031 9.265625 -19.3125 9.265625 -15.4375 C 9.265625 -11.5625 9.671875 -8.914062 10.484375 -7.5 C 11.304688 -6.082031 12.835938 -5.375 15.078125 -5.375 C 19.222656 -5.375 22.328125 -5.503906 24.390625 -5.765625 Z M 24.390625 -5.765625 "/></g></g></g><g fill="#000000" fill-opacity="1"><g transform="translate(191.316406, 295.134619)"><g><path d="M 12.265625 -13.609375 L 9.625 -13.609375 C 9.832031 -12.410156 9.9375 -11.425781 9.9375 -10.65625 L 9.9375 0 L 3.125 0 L 3.125 -30.875 L 9.9375 -30.875 L 9.9375 -22.15625 C 9.9375 -20.84375 9.832031 -19.617188 9.625 -18.484375 L 12.265625 -18.484375 L 20.09375 -30.875 L 27.46875 -30.875 L 19.515625 -18.578125 C 19.003906 -17.679688 18.257812 -16.859375 17.28125 -16.109375 L 17.28125 -15.9375 C 18.351562 -15.1875 19.21875 -14.273438 19.875 -13.203125 L 28.015625 0 L 20.40625 0 Z M 12.265625 -13.609375 "/></g></g></g><g fill="#000000" fill-opacity="1"><g transform="translate(219.546986, 295.134619)"><g><path d="M 27.921875 -30.875 L 34.5 -30.875 C 36.144531 -30.875 36.992188 -30.023438 37.046875 -28.328125 L 38.265625 0 L 31.8125 0 L 30.78125 -25.546875 L 30.03125 -25.546875 L 25.375 -6.4375 C 25.070312 -4.976562 24.144531 -4.25 22.59375 -4.25 L 18.125 -4.25 C 16.570312 -4.25 15.644531 -4.976562 15.34375 -6.4375 L 10.65625 -25.546875 L 9.890625 -25.546875 L 9 0 L 2.546875 0 L 3.671875 -28.328125 C 3.753906 -30.023438 4.601562 -30.875 6.21875 -30.875 L 12.796875 -30.875 C 14.253906 -30.875 15.148438 -30.144531 15.484375 -28.6875 L 19.25 -13.296875 C 19.476562 -12.304688 19.742188 -10.859375 20.046875 -8.953125 L 20.625 -8.953125 C 20.65625 -9.097656 20.765625 -9.707031 20.953125 -10.78125 C 21.148438 -11.851562 21.3125 -12.691406 21.4375 -13.296875 L 25.15625 -28.6875 C 25.507812 -30.144531 26.429688 -30.875 27.921875 -30.875 Z M 27.921875 -30.875 "/></g></g></g><g clip-path="url(#id1)"><g clip-path="url(#id2)"><g clip-path="url(#id3)"><path fill="#068aa4" d="M 111.679688 139.484375 C 146.144531 97.898438 301.332031 100.167969 337.589844 36.527344 C 360.808594 133.125 182.472656 157.140625 182.472656 157.140625 C 182.472656 157.140625 292.800781 146.535156 329.535156 105.742188 C 332.824219 178.597656 196.199219 200.890625 196.199219 200.890625 C 196.199219 200.890625 233.671875 204.171875 287.523438 178.957031 C 245.089844 263.746094 71.59375 250.171875 71.59375 250.171875 C 71.59375 250.171875 91.316406 164.058594 111.679688 139.484375 " fill-opacity="1" fill-rule="nonzero"/></g></g></g></svg>