<svg xmlns="http://www.w3.org/2000/svg" xmlns:xlink="http://www.w3.org/1999/xlink" width="500" zoomAndPan="magnify" viewBox="0 0 375 374.999991" height="500" preserveAspectRatio="xMidYMid meet" version="1.0"><defs><clipPath id="id1"><path d="M 14 43.738281 L 358 43.738281 L 358 111 L 14 111 Z M 14 43.738281 " clip-rule="nonzero"/></clipPath><clipPath id="id2"><path d="M 14 264 L 358 264 L 358 330.988281 L 14 330.988281 Z M 14 264 " clip-rule="nonzero"/></clipPath></defs><g clip-path="url(#id1)"><path fill="#068aa4" d="M 325.03125 110.125 L 47.402344 110.125 C 46.332031 110.101562 45.265625 110.027344 44.203125 109.902344 C 43.140625 109.773438 42.085938 109.597656 41.042969 109.367188 C 39.996094 109.140625 38.964844 108.859375 37.945312 108.53125 C 36.925781 108.203125 35.925781 107.824219 34.945312 107.402344 C 33.964844 106.976562 33.003906 106.503906 32.070312 105.984375 C 31.132812 105.46875 30.222656 104.90625 29.34375 104.300781 C 28.460938 103.691406 27.609375 103.046875 26.792969 102.355469 C 25.972656 101.667969 25.1875 100.941406 24.441406 100.179688 C 23.691406 99.414062 22.984375 98.617188 22.3125 97.78125 C 21.640625 96.949219 21.011719 96.085938 20.425781 95.191406 C 19.835938 94.300781 19.296875 93.378906 18.796875 92.433594 C 18.300781 91.488281 17.847656 90.519531 17.445312 89.527344 C 17.039062 88.539062 16.683594 87.53125 16.378906 86.507812 C 16.070312 85.484375 15.816406 84.445312 15.609375 83.398438 C 15.402344 82.347656 15.25 81.292969 15.144531 80.226562 C 15.042969 79.164062 14.992188 78.097656 14.992188 77.027344 C 14.992188 75.957031 15.042969 74.890625 15.144531 73.828125 C 15.25 72.765625 15.402344 71.707031 15.609375 70.660156 C 15.816406 69.609375 16.070312 68.574219 16.378906 67.546875 C 16.683594 66.523438 17.039062 65.515625 17.445312 64.527344 C 17.847656 63.539062 18.300781 62.570312 18.796875 61.625 C 19.296875 60.675781 19.835938 59.757812 20.425781 58.863281 C 21.011719 57.96875 21.640625 57.105469 22.3125 56.273438 C 22.984375 55.441406 23.691406 54.640625 24.441406 53.878906 C 25.1875 53.113281 25.972656 52.386719 26.792969 51.699219 C 27.609375 51.011719 28.460938 50.363281 29.34375 49.757812 C 30.222656 49.152344 31.132812 48.589844 32.070312 48.070312 C 33.003906 47.550781 33.964844 47.082031 34.945312 46.65625 C 35.925781 46.230469 36.925781 45.851562 37.945312 45.523438 C 38.964844 45.195312 39.996094 44.917969 41.042969 44.6875 C 42.085938 44.460938 43.140625 44.28125 44.203125 44.15625 C 45.265625 44.027344 46.332031 43.953125 47.402344 43.929688 L 325.03125 43.929688 C 326.101562 43.953125 327.167969 44.027344 328.230469 44.15625 C 329.292969 44.28125 330.347656 44.460938 331.394531 44.6875 C 332.4375 44.917969 333.46875 45.195312 334.488281 45.523438 C 335.507812 45.851562 336.507812 46.230469 337.488281 46.65625 C 338.472656 47.082031 339.429688 47.550781 340.367188 48.070312 C 341.300781 48.589844 342.210938 49.152344 343.09375 49.757812 C 343.972656 50.363281 344.824219 51.011719 345.644531 51.699219 C 346.460938 52.386719 347.246094 53.113281 347.992188 53.878906 C 348.742188 54.640625 349.453125 55.441406 350.121094 56.273438 C 350.792969 57.105469 351.421875 57.96875 352.011719 58.863281 C 352.597656 59.757812 353.140625 60.675781 353.636719 61.625 C 354.136719 62.570312 354.585938 63.539062 354.992188 64.527344 C 355.394531 65.515625 355.75 66.523438 356.058594 67.546875 C 356.363281 68.574219 356.621094 69.609375 356.824219 70.660156 C 357.03125 71.707031 357.1875 72.765625 357.289062 73.828125 C 357.394531 74.890625 357.445312 75.957031 357.445312 77.027344 C 357.445312 78.097656 357.394531 79.164062 357.289062 80.226562 C 357.1875 81.292969 357.03125 82.347656 356.824219 83.398438 C 356.621094 84.445312 356.363281 85.484375 356.058594 86.507812 C 355.75 87.53125 355.394531 88.539062 354.992188 89.527344 C 354.585938 90.519531 354.136719 91.488281 353.636719 92.433594 C 353.140625 93.378906 352.597656 94.300781 352.011719 95.191406 C 351.421875 96.085938 350.792969 96.949219 350.121094 97.78125 C 349.453125 98.617188 348.742188 99.414062 347.992188 100.179688 C 347.246094 100.941406 346.460938 101.667969 345.644531 102.355469 C 344.824219 103.046875 343.972656 103.691406 343.09375 104.300781 C 342.210938 104.90625 341.300781 105.46875 340.367188 105.984375 C 339.429688 106.503906 338.472656 106.976562 337.488281 107.402344 C 336.507812 107.824219 335.507812 108.203125 334.488281 108.53125 C 333.46875 108.859375 332.4375 109.140625 331.394531 109.367188 C 330.347656 109.597656 329.292969 109.773438 328.230469 109.902344 C 327.167969 110.027344 326.101562 110.101562 325.03125 110.125 Z M 325.03125 110.125 " fill-opacity="1" fill-rule="nonzero"/></g><path fill="#068aa4" d="M 325.03125 220.261719 L 47.402344 220.261719 C 46.355469 220.214844 45.3125 220.117188 44.273438 219.972656 C 43.234375 219.824219 42.203125 219.632812 41.183594 219.386719 C 40.160156 219.144531 39.15625 218.851562 38.164062 218.511719 C 37.171875 218.171875 36.195312 217.785156 35.242188 217.351562 C 34.285156 216.917969 33.351562 216.441406 32.441406 215.917969 C 31.53125 215.398438 30.648438 214.832031 29.792969 214.226562 C 28.9375 213.621094 28.113281 212.976562 27.320312 212.289062 C 26.523438 211.605469 25.765625 210.882812 25.039062 210.128906 C 24.3125 209.371094 23.625 208.578125 22.976562 207.757812 C 22.328125 206.933594 21.71875 206.082031 21.148438 205.203125 C 20.582031 204.320312 20.054688 203.414062 19.574219 202.484375 C 19.09375 201.550781 18.65625 200.601562 18.265625 199.628906 C 17.875 198.65625 17.53125 197.664062 17.234375 196.660156 C 16.9375 195.65625 16.691406 194.636719 16.492188 193.609375 C 16.292969 192.578125 16.144531 191.542969 16.042969 190.5 C 15.941406 189.457031 15.894531 188.410156 15.894531 187.363281 C 15.894531 186.3125 15.941406 185.269531 16.042969 184.226562 C 16.144531 183.183594 16.292969 182.144531 16.492188 181.117188 C 16.691406 180.085938 16.9375 179.070312 17.234375 178.066406 C 17.53125 177.058594 17.875 176.070312 18.265625 175.097656 C 18.65625 174.125 19.09375 173.171875 19.574219 172.242188 C 20.054688 171.3125 20.582031 170.40625 21.148438 169.523438 C 21.71875 168.644531 22.328125 167.789062 22.976562 166.96875 C 23.625 166.144531 24.3125 165.355469 25.039062 164.597656 C 25.765625 163.839844 26.523438 163.121094 27.320312 162.433594 C 28.113281 161.75 28.9375 161.105469 29.792969 160.496094 C 30.648438 159.890625 31.53125 159.328125 32.441406 158.804688 C 33.351562 158.285156 34.285156 157.804688 35.242188 157.375 C 36.195312 156.941406 37.171875 156.554688 38.164062 156.214844 C 39.15625 155.875 40.160156 155.582031 41.183594 155.339844 C 42.203125 155.09375 43.234375 154.898438 44.273438 154.753906 C 45.3125 154.605469 46.355469 154.511719 47.402344 154.464844 L 325.03125 154.464844 C 326.140625 154.417969 327.25 154.421875 328.359375 154.484375 C 329.464844 154.550781 330.570312 154.667969 331.664062 154.839844 C 332.761719 155.015625 333.847656 155.246094 334.917969 155.527344 C 335.992188 155.8125 337.046875 156.148438 338.085938 156.539062 C 339.125 156.929688 340.144531 157.371094 341.136719 157.863281 C 342.132812 158.355469 343.097656 158.898438 344.039062 159.488281 C 344.976562 160.078125 345.886719 160.714844 346.761719 161.398438 C 347.636719 162.078125 348.476562 162.804688 349.277344 163.570312 C 350.078125 164.335938 350.839844 165.140625 351.5625 165.984375 C 352.28125 166.828125 352.957031 167.707031 353.589844 168.617188 C 354.222656 169.527344 354.804688 170.46875 355.34375 171.441406 C 355.878906 172.410156 356.367188 173.40625 356.800781 174.425781 C 357.238281 175.445312 357.621094 176.484375 357.953125 177.542969 C 358.285156 178.601562 358.558594 179.671875 358.78125 180.761719 C 359.003906 181.847656 359.171875 182.941406 359.285156 184.042969 C 359.394531 185.148438 359.453125 186.253906 359.453125 187.363281 C 359.453125 188.472656 359.394531 189.578125 359.285156 190.679688 C 359.171875 191.785156 359.003906 192.878906 358.78125 193.964844 C 358.558594 195.050781 358.285156 196.125 357.953125 197.183594 C 357.621094 198.242188 357.238281 199.28125 356.800781 200.300781 C 356.367188 201.320312 355.878906 202.3125 355.34375 203.285156 C 354.804688 204.253906 354.222656 205.195312 353.589844 206.109375 C 352.957031 207.019531 352.28125 207.898438 351.5625 208.742188 C 350.839844 209.582031 350.078125 210.390625 349.277344 211.15625 C 348.476562 211.921875 347.636719 212.644531 346.761719 213.328125 C 345.886719 214.011719 344.976562 214.644531 344.039062 215.238281 C 343.097656 215.828125 342.132812 216.367188 341.136719 216.863281 C 340.144531 217.355469 339.125 217.796875 338.085938 218.1875 C 337.046875 218.574219 335.992188 218.914062 334.917969 219.195312 C 333.847656 219.480469 332.761719 219.710938 331.664062 219.882812 C 330.570312 220.058594 329.464844 220.175781 328.359375 220.238281 C 327.25 220.300781 326.140625 220.308594 325.03125 220.261719 Z M 325.03125 220.261719 " fill-opacity="1" fill-rule="nonzero"/><g clip-path="url(#id2)"><path fill="#068aa4" d="M 325.03125 330.859375 L 47.402344 330.859375 C 46.332031 330.835938 45.265625 330.761719 44.203125 330.632812 C 43.140625 330.507812 42.085938 330.328125 41.042969 330.101562 C 39.996094 329.871094 38.964844 329.59375 37.945312 329.265625 C 36.925781 328.9375 35.925781 328.558594 34.945312 328.132812 C 33.964844 327.707031 33.003906 327.238281 32.070312 326.71875 C 31.132812 326.199219 30.222656 325.636719 29.34375 325.03125 C 28.460938 324.425781 27.609375 323.777344 26.792969 323.089844 C 25.972656 322.402344 25.1875 321.675781 24.441406 320.910156 C 23.691406 320.148438 22.984375 319.347656 22.3125 318.515625 C 21.640625 317.683594 21.011719 316.820312 20.425781 315.925781 C 19.835938 315.03125 19.296875 314.113281 18.796875 313.164062 C 18.300781 312.21875 17.847656 311.25 17.445312 310.261719 C 17.039062 309.273438 16.683594 308.265625 16.378906 307.242188 C 16.070312 306.214844 15.816406 305.179688 15.609375 304.128906 C 15.402344 303.082031 15.25 302.023438 15.144531 300.960938 C 15.042969 299.898438 14.992188 298.832031 14.992188 297.761719 C 14.992188 296.691406 15.042969 295.625 15.144531 294.5625 C 15.25 293.496094 15.402344 292.441406 15.609375 291.390625 C 15.816406 290.34375 16.070312 289.304688 16.378906 288.28125 C 16.683594 287.257812 17.039062 286.25 17.445312 285.261719 C 17.847656 284.269531 18.300781 283.300781 18.796875 282.355469 C 19.296875 281.410156 19.835938 280.488281 20.425781 279.597656 C 21.011719 278.703125 21.640625 277.839844 22.3125 277.007812 C 22.984375 276.171875 23.691406 275.375 24.441406 274.609375 C 25.1875 273.847656 25.972656 273.121094 26.792969 272.433594 C 27.609375 271.742188 28.460938 271.097656 29.34375 270.488281 C 30.222656 269.882812 31.132812 269.320312 32.070312 268.804688 C 33.003906 268.285156 33.964844 267.8125 34.945312 267.386719 C 35.925781 266.964844 36.925781 266.585938 37.945312 266.257812 C 38.964844 265.929688 39.996094 265.652344 41.042969 265.421875 C 42.085938 265.191406 43.140625 265.015625 44.203125 264.886719 C 45.265625 264.761719 46.332031 264.6875 47.402344 264.664062 L 325.03125 264.664062 C 326.101562 264.6875 327.167969 264.761719 328.230469 264.886719 C 329.292969 265.015625 330.347656 265.191406 331.394531 265.421875 C 332.4375 265.652344 333.46875 265.929688 334.488281 266.257812 C 335.507812 266.585938 336.507812 266.964844 337.488281 267.386719 C 338.472656 267.8125 339.429688 268.285156 340.367188 268.804688 C 341.300781 269.320312 342.210938 269.882812 343.09375 270.488281 C 343.972656 271.097656 344.824219 271.742188 345.644531 272.433594 C 346.460938 273.121094 347.246094 273.847656 347.992188 274.609375 C 348.742188 275.375 349.453125 276.171875 350.121094 277.007812 C 350.792969 277.839844 351.421875 278.703125 352.011719 279.597656 C 352.597656 280.488281 353.140625 281.410156 353.636719 282.355469 C 354.136719 283.300781 354.585938 284.269531 354.992188 285.261719 C 355.394531 286.25 355.75 287.257812 356.058594 288.28125 C 356.363281 289.304688 356.621094 290.34375 356.824219 291.390625 C 357.03125 292.441406 357.1875 293.496094 357.289062 294.5625 C 357.394531 295.625 357.445312 296.691406 357.445312 297.761719 C 357.445312 298.832031 357.394531 299.898438 357.289062 300.960938 C 357.1875 302.023438 357.03125 303.082031 356.824219 304.128906 C 356.621094 305.179688 356.363281 306.214844 356.058594 307.242188 C 355.75 308.265625 355.394531 309.273438 354.992188 310.261719 C 354.585938 311.25 354.136719 312.21875 353.636719 313.164062 C 353.140625 314.113281 352.597656 315.03125 352.011719 315.925781 C 351.421875 316.820312 350.792969 317.683594 350.121094 318.515625 C 349.453125 319.347656 348.742188 320.148438 347.992188 320.910156 C 347.246094 321.675781 346.460938 322.402344 345.644531 323.089844 C 344.824219 323.777344 343.972656 324.425781 343.09375 325.03125 C 342.210938 325.636719 341.300781 326.199219 340.367188 326.71875 C 339.429688 327.238281 338.472656 327.707031 337.488281 328.132812 C 336.507812 328.558594 335.507812 328.9375 334.488281 329.265625 C 333.46875 329.59375 332.4375 329.871094 331.394531 330.101562 C 330.347656 330.328125 329.292969 330.507812 328.230469 330.632812 C 327.167969 330.761719 326.101562 330.835938 325.03125 330.859375 Z M 325.03125 330.859375 " fill-opacity="1" fill-rule="nonzero"/></g></svg>