<svg xmlns="http://www.w3.org/2000/svg" xmlns:xlink="http://www.w3.org/1999/xlink" width="500" zoomAndPan="magnify" viewBox="0 0 375 374.999991" height="500" preserveAspectRatio="xMidYMid meet" version="1.0"><defs><g/><clipPath id="id1"><path d="M 11 88 L 221 88 L 221 256 L 11 256 Z M 11 88 " clip-rule="nonzero"/></clipPath><clipPath id="id2"><path d="M 4.976562 39.710938 L 248.671875 59.546875 L 228.832031 303.242188 L -14.859375 283.402344 Z M 4.976562 39.710938 " clip-rule="nonzero"/></clipPath><clipPath id="id3"><path d="M 4.976562 39.710938 L 248.671875 59.546875 L 228.832031 303.242188 L -14.859375 283.402344 Z M 4.976562 39.710938 " clip-rule="nonzero"/></clipPath></defs><rect x="-37.5" width="450" fill="#ffffff" y="-37.499999" height="449.999989" fill-opacity="1"/><rect x="-37.5" width="450" fill="#ffffff" y="-37.499999" height="449.999989" fill-opacity="1"/><rect x="-37.5" width="450" fill="#ffffff" y="-37.499999" height="449.999989" fill-opacity="1"/><rect x="-37.5" width="450" fill="#ffffff" y="-37.499999" height="449.999989" fill-opacity="1"/><g fill="#000000" fill-opacity="1"><g transform="translate(190.517716, 219.589491)"><g><path d="M 25.171875 -27.828125 L 31.09375 -27.828125 C 32.570312 -27.828125 33.335938 -27.0625 33.390625 -25.53125 L 34.484375 0 L 28.671875 0 L 27.75 -23.03125 L 27.0625 -23.03125 L 22.859375 -5.8125 C 22.597656 -4.488281 21.765625 -3.828125 20.359375 -3.828125 L 16.328125 -3.828125 C 14.929688 -3.828125 14.097656 -4.488281 13.828125 -5.8125 L 9.59375 -23.03125 L 8.90625 -23.03125 L 8.109375 0 L 2.296875 0 L 3.3125 -25.53125 C 3.382812 -27.0625 4.148438 -27.828125 5.609375 -27.828125 L 11.53125 -27.828125 C 12.851562 -27.828125 13.660156 -27.164062 13.953125 -25.84375 L 17.34375 -11.984375 C 17.550781 -11.085938 17.789062 -9.78125 18.0625 -8.0625 L 18.59375 -8.0625 C 18.613281 -8.195312 18.710938 -8.75 18.890625 -9.71875 C 19.066406 -10.6875 19.207031 -11.441406 19.3125 -11.984375 L 22.671875 -25.84375 C 22.984375 -27.164062 23.816406 -27.828125 25.171875 -27.828125 Z M 25.171875 -27.828125 "/></g></g></g><g fill="#000000" fill-opacity="1"><g transform="translate(227.245318, 219.589491)"><g><path d="M 17.90625 -7.296875 L 8.34375 -7.296875 L 6.328125 0 L 0.046875 0 L 8.0625 -26.21875 C 8.175781 -26.695312 8.429688 -27.082031 8.828125 -27.375 C 9.234375 -27.675781 9.691406 -27.828125 10.203125 -27.828125 L 16.015625 -27.828125 C 17.171875 -27.828125 17.878906 -27.289062 18.140625 -26.21875 L 26.171875 0 L 19.921875 0 Z M 16.578125 -12.0625 L 14.234375 -20.5625 C 13.910156 -21.90625 13.722656 -22.78125 13.671875 -23.1875 L 12.578125 -23.1875 C 12.523438 -22.914062 12.429688 -22.484375 12.296875 -21.890625 C 12.160156 -21.304688 12.054688 -20.863281 11.984375 -20.5625 L 9.640625 -12.0625 Z M 16.578125 -12.0625 "/></g></g></g><g fill="#000000" fill-opacity="1"><g transform="translate(253.450527, 219.589491)"><g><path d="M 24.765625 0 L 18.265625 0 L 16.171875 -8.515625 C 15.898438 -9.398438 15.539062 -10.007812 15.09375 -10.34375 C 14.65625 -10.675781 14.019531 -10.84375 13.1875 -10.84375 L 8.875 -10.890625 L 8.875 0 L 2.828125 0 L 2.828125 -27.828125 C 5.328125 -28.066406 8.859375 -28.1875 13.421875 -28.1875 C 17.160156 -28.1875 19.8125 -27.59375 21.375 -26.40625 C 22.9375 -25.226562 23.71875 -23.082031 23.71875 -19.96875 C 23.71875 -17.914062 23.304688 -16.3125 22.484375 -15.15625 C 21.660156 -14 20.296875 -13.300781 18.390625 -13.0625 L 18.390625 -12.859375 C 20.515625 -12.378906 21.832031 -10.984375 22.34375 -8.671875 Z M 8.875 -15.609375 L 13.3125 -15.609375 C 14.925781 -15.609375 16.023438 -15.882812 16.609375 -16.4375 C 17.203125 -16.988281 17.5 -18.03125 17.5 -19.5625 C 17.5 -21.09375 17.207031 -22.125 16.625 -22.65625 C 16.050781 -23.195312 14.945312 -23.46875 13.3125 -23.46875 L 8.875 -23.4375 Z M 8.875 -15.609375 "/></g></g></g><g fill="#000000" fill-opacity="1"><g transform="translate(279.373522, 219.589491)"><g><path d="M 21.984375 -5.203125 L 22.5 -0.640625 C 20.082031 0.109375 17.113281 0.484375 13.59375 0.484375 C 9.289062 0.484375 6.265625 -0.585938 4.515625 -2.734375 C 2.765625 -4.890625 1.890625 -8.613281 1.890625 -13.90625 C 1.890625 -19.207031 2.765625 -22.929688 4.515625 -25.078125 C 6.265625 -27.234375 9.289062 -28.3125 13.59375 -28.3125 C 16.707031 -28.3125 19.488281 -28 21.9375 -27.375 L 21.421875 -22.78125 C 19.234375 -22.914062 16.625 -22.984375 13.59375 -22.984375 C 11.570312 -22.984375 10.191406 -22.34375 9.453125 -21.0625 C 8.710938 -19.789062 8.34375 -17.40625 8.34375 -13.90625 C 8.34375 -10.414062 8.710938 -8.03125 9.453125 -6.75 C 10.191406 -5.476562 11.570312 -4.84375 13.59375 -4.84375 C 17.332031 -4.84375 20.128906 -4.960938 21.984375 -5.203125 Z M 21.984375 -5.203125 "/></g></g></g><g fill="#000000" fill-opacity="1"><g transform="translate(302.998527, 219.589491)"><g><path d="M 11.046875 -12.265625 L 8.671875 -12.265625 C 8.859375 -11.179688 8.953125 -10.289062 8.953125 -9.59375 L 8.953125 0 L 2.828125 0 L 2.828125 -27.828125 L 8.953125 -27.828125 L 8.953125 -19.96875 C 8.953125 -18.78125 8.859375 -17.675781 8.671875 -16.65625 L 11.046875 -16.65625 L 18.109375 -27.828125 L 24.765625 -27.828125 L 17.578125 -16.734375 C 17.117188 -15.929688 16.445312 -15.191406 15.5625 -14.515625 L 15.5625 -14.359375 C 16.53125 -13.679688 17.3125 -12.859375 17.90625 -11.890625 L 25.25 0 L 18.390625 0 Z M 11.046875 -12.265625 "/></g></g></g><g fill="#000000" fill-opacity="1"><g transform="translate(328.437735, 219.589491)"><g><path d="M 25.171875 -27.828125 L 31.09375 -27.828125 C 32.570312 -27.828125 33.335938 -27.0625 33.390625 -25.53125 L 34.484375 0 L 28.671875 0 L 27.75 -23.03125 L 27.0625 -23.03125 L 22.859375 -5.8125 C 22.597656 -4.488281 21.765625 -3.828125 20.359375 -3.828125 L 16.328125 -3.828125 C 14.929688 -3.828125 14.097656 -4.488281 13.828125 -5.8125 L 9.59375 -23.03125 L 8.90625 -23.03125 L 8.109375 0 L 2.296875 0 L 3.3125 -25.53125 C 3.382812 -27.0625 4.148438 -27.828125 5.609375 -27.828125 L 11.53125 -27.828125 C 12.851562 -27.828125 13.660156 -27.164062 13.953125 -25.84375 L 17.34375 -11.984375 C 17.550781 -11.085938 17.789062 -9.78125 18.0625 -8.0625 L 18.59375 -8.0625 C 18.613281 -8.195312 18.710938 -8.75 18.890625 -9.71875 C 19.066406 -10.6875 19.207031 -11.441406 19.3125 -11.984375 L 22.671875 -25.84375 C 22.984375 -27.164062 23.816406 -27.828125 25.171875 -27.828125 Z M 25.171875 -27.828125 "/></g></g></g><g clip-path="url(#id1)"><g clip-path="url(#id2)"><g clip-path="url(#id3)"><path fill="#068aa4" d="M 43.015625 168.34375 C 69.894531 135.910156 190.925781 137.683594 219.203125 88.046875 C 237.3125 163.386719 98.226562 182.117188 98.226562 182.117188 C 98.226562 182.117188 184.273438 173.84375 212.921875 142.027344 C 215.488281 198.851562 108.933594 216.234375 108.933594 216.234375 C 108.933594 216.234375 138.160156 218.792969 180.15625 199.128906 C 147.0625 265.257812 11.753906 254.667969 11.753906 254.667969 C 11.753906 254.667969 27.136719 187.511719 43.015625 168.34375 " fill-opacity="1" fill-rule="nonzero"/></g></g></g></svg>